SplineFontDB: 3.2
FontName: MandoAF-Classic
FullName: Mando AF Classic
FamilyName: Mando AF
Weight: Regular
Copyright: CC0 - public domain
Version: 002
ItalicAngle: 0
UnderlinePosition: -100
UnderlineWidth: 50
Ascent: 1000
Descent: 0
InvalidEm: 0
sfntRevision: 0x00010000
LayerCount: 2
Layer: 0 0 "Back" 1
Layer: 1 0 "Fore" 0
XUID: [1021 178 1911899458 30621]
StyleMap: 0x0000
FSType: 0
OS2Version: 4
OS2_WeightWidthSlopeOnly: 0
OS2_UseTypoMetrics: 1
CreationTime: 1587621776
ModificationTime: 1606955158
PfmFamily: 17
TTFWeight: 400
TTFWidth: 5
LineGap: 90
VLineGap: 0
Panose: 2 0 5 3 0 0 0 0 0 0
OS2TypoAscent: 800
OS2TypoAOffset: 0
OS2TypoDescent: -200
OS2TypoDOffset: 0
OS2TypoLinegap: 90
OS2WinAscent: 802
OS2WinAOffset: 0
OS2WinDescent: 220
OS2WinDOffset: 0
HheadAscent: 802
HheadAOffset: 0
HheadDescent: -220
HheadDOffset: 0
OS2SubXSize: 650
OS2SubYSize: 699
OS2SubXOff: 0
OS2SubYOff: 140
OS2SupXSize: 650
OS2SupYSize: 699
OS2SupXOff: 0
OS2SupYOff: 479
OS2StrikeYSize: 49
OS2StrikeYPos: 258
OS2CapHeight: 796
OS2XHeight: 796
OS2Vendor: 'PfEd'
OS2CodePages: 00000001.00000000
OS2UnicodeRanges: 00000001.00000000.00000000.00000000
Lookup: 258 0 0 "'kern' Horizontal Kerning in Latin lookup 0" { "'kern' Horizontal Kerning in Latin lookup 0-1" [200,10,2] } ['kern' ('DFLT' <'dflt' > 'latn' <'dflt' > ) ]
MarkAttachClasses: 1
DEI: 91125
KernClass2: 32 33 "'kern' Horizontal Kerning in Latin lookup 0-1"
 6 exclam
 20 quotedbl quotesingle
 14 numbersign I i
 14 dollar G W g w
 9 ampersand
 5 comma
 6 hyphen
 6 period
 29 zero three seven nine J N j n
 13 one eight P p
 8 two four
 16 five six M O m o
 5 colon
 9 semicolon
 8 question
 6 at T t
 3 A a
 3 B b
 7 C U c u
 3 D d
 3 E e
 3 F f
 3 H h
 7 K Q k q
 7 L S l s
 3 R r
 3 V v
 3 X x
 3 Y y
 3 Z z
 10 underscore
 6 exclam
 20 quotedbl quotesingle
 14 numbersign S s
 6 dollar
 26 ampersand question B Y b y
 5 comma
 6 hyphen
 6 period
 4 zero
 13 one seven W w
 31 two four six eight nine C D c d
 9 three J j
 8 five U u
 5 colon

StartChar: zero
Encoding: 48 48 2
Width: 405
Flags: W
HStem: 923.29 76.1904<50 107.19 297.81 355>
VStem: 50 133.44<923.29 999.48> 107.19 76.25<513.76 923.29> 221.56 133.44<923.29 999.48> 221.56 76.25<66.1396 923.29>
LayerCount: 2
Fore
SplineSet
355 999.48046875 m 1x90
 355 923.290039062 l 1x90
 297.809570312 923.290039062 l 1
 297.809570312 66.1396484375 l 1
 221.559570312 9 l 1x88
 221.559570312 923.290039062 l 1
 221.559570312 999.48046875 l 1x90
 297.809570312 999.48046875 l 1x88
 355 999.48046875 l 1x90
183.440429688 456.620117188 m 1xa0
 107.190429688 513.759765625 l 1
 107.190429688 923.290039062 l 1xa0
 50 923.290039062 l 1
 50 999.48046875 l 1xc0
 107.190429688 999.48046875 l 1xa0
 183.440429688 999.48046875 l 1
 183.440429688 923.290039062 l 1xc0
 183.440429688 456.620117188 l 1xa0
EndSplineSet
Validated: 8912897
EndChar

StartChar: one
Encoding: 49 49 3
Width: 405
Flags: W
HStem: 9 76.1904<50 107.19 297.81 355>
VStem: 50 133.44<9 85.1904> 107.19 76.25<85.1904 942.33> 221.56 133.44<9 85.1904> 221.56 76.25<85.1904 942.33>
LayerCount: 2
Fore
SplineSet
355 85.1904296875 m 1x90
 355 9 l 1x90
 297.809570312 9 l 1x88
 221.559570312 9 l 1
 221.559570312 85.1904296875 l 1x90
 221.559570312 999.48046875 l 1
 297.809570312 942.330078125 l 1
 297.809570312 85.1904296875 l 1x88
 355 85.1904296875 l 1x90
183.440429688 85.1904296875 m 1xc0
 183.440429688 9 l 1xc0
 107.190429688 9 l 1xa0
 50 9 l 1
 50 85.1904296875 l 1xc0
 107.190429688 85.1904296875 l 1
 107.190429688 942.330078125 l 1
 183.440429688 999.48046875 l 1xa0
 183.440429688 85.1904296875 l 1xc0
EndSplineSet
Validated: 8912897
EndChar

StartChar: two
Encoding: 50 50 4
Width: 395
Flags: W
HStem: 9 76.1904<126.25 183.44 212.03 269.22>
VStem: 50 133.44<9 85.1904> 50 76.25<85.1904 942.33> 212.03 133.439<9 85.1904> 269.22 76.25<85.1904 942.33>
LayerCount: 2
Fore
SplineSet
183.440429688 85.1904296875 m 1xc0
 183.440429688 9 l 1xc0
 126.25 9 l 1xa0
 50 9 l 1
 50 85.1904296875 l 1xc0
 50 999.48046875 l 1
 126.25 942.330078125 l 1
 126.25 85.1904296875 l 1xa0
 183.440429688 85.1904296875 l 1xc0
345.469726562 85.1904296875 m 1x90
 345.469726562 9 l 1x90
 269.219726562 9 l 1x88
 212.030273438 9 l 1
 212.030273438 85.1904296875 l 1x90
 269.219726562 85.1904296875 l 1
 269.219726562 942.330078125 l 1
 345.469726562 999.48046875 l 1x88
 345.469726562 85.1904296875 l 1x90
EndSplineSet
Validated: 8912897
EndChar

StartChar: three
Encoding: 51 51 5
Width: 405
Flags: W
HStem: 923.29 76.1904<50 107.19 297.81 355>
VStem: 50 133.44<923.29 999.48> 107.19 76.25<66.1396 923.29> 221.56 133.44<923.29 999.48> 221.56 76.25<66.1396 923.29>
LayerCount: 2
Fore
SplineSet
355 999.48046875 m 1x90
 355 923.290039062 l 1x90
 297.809570312 923.290039062 l 1
 297.809570312 66.1396484375 l 1
 221.559570312 9 l 1x88
 221.559570312 923.290039062 l 1
 221.559570312 999.48046875 l 1x90
 297.809570312 999.48046875 l 1x88
 355 999.48046875 l 1x90
183.440429688 9 m 1xa0
 107.190429688 66.1396484375 l 1xa0
 107.190429687 923.290039062 l 1
 50 923.290039062 l 1
 50 999.48046875 l 1xc0
 107.190429688 999.48046875 l 1xa0
 183.440429688 999.48046875 l 1
 183.440429688 923.290039062 l 1xc0
 183.440429688 9 l 1xa0
EndSplineSet
Validated: 8912897
EndChar

StartChar: four
Encoding: 52 52 6
Width: 395
Flags: W
HStem: 923.29 76.1904<126.25 183.44 212.03 269.22>
VStem: 50 133.44<923.29 999.48> 50 76.25<66.1396 923.29> 212.03 133.439<923.29 999.48> 269.22 76.25<66.1396 923.29>
LayerCount: 2
Fore
SplineSet
183.440429688 999.48046875 m 1xc0
 183.440429688 923.290039062 l 1xc0
 126.25 923.290039062 l 1
 126.25 66.1396484375 l 1
 50 9 l 1xa0
 50 923.290039062 l 1
 50 999.48046875 l 1xc0
 126.25 999.48046875 l 1xa0
 183.440429688 999.48046875 l 1xc0
345.469726562 9 m 1x88
 269.219726562 66.1396484375 l 1
 269.219726562 923.290039062 l 1x88
 212.030273438 923.290039062 l 1
 212.030273438 999.48046875 l 1x90
 269.219726562 999.48046875 l 1x88
 345.469726562 999.48046875 l 1
 345.469726562 923.290039062 l 1x90
 345.469726562 9 l 1x88
EndSplineSet
Validated: 8912897
EndChar

StartChar: five
Encoding: 53 53 7
Width: 405
Flags: W
HStem: 9 76.1904<50 107.19 297.81 355> 923.29 76.1904<50 107.19 297.81 355>
VStem: 50 133.44<9 85.1904 923.29 999.48> 107.19 76.25<85.1904 923.29> 221.56 133.44<9 85.1904 923.29 999.48> 221.56 76.25<85.1904 923.29>
LayerCount: 2
Fore
SplineSet
355 85.1904296875 m 1xc8
 355 9 l 1xc8
 297.809570312 9 l 1xc4
 221.559570312 9 l 1
 221.559570312 85.1904296875 l 1
 221.559570312 923.290039062 l 1
 221.559570312 999.48046875 l 1xc8
 297.809570312 999.48046875 l 1xc4
 355 999.48046875 l 1
 355 923.290039062 l 1xc8
 297.809570312 923.290039062 l 1
 297.809570312 85.1904296875 l 1xc4
 355 85.1904296875 l 1xc8
107.190429687 923.290039062 m 1
 50 923.290039062 l 1
 50 999.48046875 l 1xe0
 107.190429688 999.48046875 l 1xd0
 183.440429688 999.48046875 l 1
 183.440429688 923.290039062 l 1
 183.440429688 85.1904296875 l 1
 183.440429688 9 l 1xe0
 107.190429688 9 l 1xd0
 50 9 l 1
 50 85.1904296875 l 1xe0
 107.190429688 85.1904296875 l 1xd0
 107.190429687 923.290039062 l 1
EndSplineSet
Validated: 8912897
EndChar

StartChar: six
Encoding: 54 54 8
Width: 233
Flags: W
HStem: 9 76.1904<126.25 183.439> 923.29 76.1904<126.25 183.439>
VStem: 50 133.439<9 85.1904 923.29 999.48> 50 76.25<85.1904 923.29>
LayerCount: 2
Fore
SplineSet
183.439453125 85.1904296875 m 1xe0
 183.439453125 9 l 1xe0
 126.25 9 l 1xd0
 50 9 l 1
 50 85.1904296875 l 1
 50 923.290039062 l 1
 50 999.48046875 l 1xe0
 126.25 999.48046875 l 1xd0
 183.439453125 999.48046875 l 1
 183.439453125 923.290039062 l 1xe0
 126.25 923.290039062 l 1
 126.25 85.1904296875 l 1xd0
 183.439453125 85.1904296875 l 1xe0
EndSplineSet
Validated: 8912897
EndChar

StartChar: seven
Encoding: 55 55 9
Width: 405
Flags: W
HStem: 9 76.1904<50 107.19> 923.29 76.1904<297.81 355>
VStem: 50 133.44<9 85.1904> 107.19 76.25<85.1904 942.33> 221.56 133.44<923.29 999.48> 221.56 76.25<66.1396 923.29>
LayerCount: 2
Fore
SplineSet
355 999.48046875 m 1xc8
 355 923.290039062 l 1xc8
 297.809570312 923.290039062 l 1
 297.809570312 66.1396484375 l 1
 221.559570312 9 l 1xc4
 221.559570312 923.290039062 l 1
 221.559570312 999.48046875 l 1xc8
 297.809570312 999.48046875 l 1xc4
 355 999.48046875 l 1xc8
183.440429688 85.1904296875 m 1xe0
 183.440429688 9 l 1xe0
 107.190429688 9 l 1xd0
 50 9 l 1
 50 85.1904296875 l 1xe0
 107.190429688 85.1904296875 l 1
 107.190429688 942.330078125 l 1
 183.440429688 999.48046875 l 1xd0
 183.440429688 85.1904296875 l 1xe0
EndSplineSet
Validated: 8912897
EndChar

StartChar: eight
Encoding: 56 56 10
Width: 233
Flags: W
HStem: 9 76.1904<126.25 183.439>
VStem: 50 133.439<9 85.1904> 50 76.25<85.1904 942.33>
LayerCount: 2
Fore
SplineSet
183.439453125 85.1904296875 m 1xc0
 183.439453125 9 l 1xc0
 126.25 9 l 1xa0
 50 9 l 1
 50 85.1904296875 l 1xc0
 50 999.48046875 l 1
 126.25 942.330078125 l 1
 126.25 85.1904296875 l 1xa0
 183.439453125 85.1904296875 l 1xc0
EndSplineSet
Validated: 8912897
EndChar

StartChar: nine
Encoding: 57 57 11
Width: 395
Flags: W
HStem: 9 76.1904<126.25 183.439> 923.29 76.1904<288.279 345.47>
VStem: 50 133.439<9 85.1904> 50 76.25<85.1904 942.33> 212.029 133.44<923.29 999.48> 212.029 76.25<66.1396 923.29>
LayerCount: 2
Fore
SplineSet
345.469726562 999.48046875 m 1xc8
 345.469726562 923.290039062 l 1xc8
 288.279296875 923.290039062 l 1
 288.279296875 66.1396484375 l 1
 212.029296875 9 l 1xc4
 212.029296875 923.290039062 l 1
 212.029296875 999.48046875 l 1xc8
 288.279296875 999.48046875 l 1xc4
 345.469726562 999.48046875 l 1xc8
183.439453125 85.1904296875 m 1xe0
 183.439453125 9 l 1xe0
 126.25 9 l 1xd0
 50 9 l 1
 50 85.1904296875 l 1xe0
 50 999.48046875 l 1
 126.25 942.330078125 l 1
 126.25 85.1904296875 l 1xd0
 183.439453125 85.1904296875 l 1xe0
EndSplineSet
Validated: 8912897
EndChar

StartChar: A
Encoding: 65 65 12
Width: 309
Flags: W
VStem: 50 76.25<342.86 396.193> 78.5898 47.6602<238.1 342.86> 157.7 101.979<20.6655 93.3301>
LayerCount: 2
Fore
SplineSet
78.58984375 342.860351562 m 1x60
 50 342.860351562 l 1xa0
 126.25 923.809570312 l 1x60
 126.25 390.48046875 l 1
 126.25 342.860351562 l 1xa0
 126.25 238.099609375 l 1
 78.58984375 238.099609375 l 1
 78.58984375 342.860351562 l 1x60
259.6796875 0 m 1
 229.08984375 0 l 2
 188.580078125 0 156.080078125 33.7099609375 157.700195312 74.1904296875 c 2
 192.969726562 990.48046875 l 1
 240.620117188 93.330078125 l 1
 259.6796875 93.330078125 l 1
 259.6796875 0 l 1
EndSplineSet
Validated: 8912929
EndChar

StartChar: B
Encoding: 66 66 13
Width: 319
Flags: W
HStem: 580.95 76.1895<183.43 269.21> 914.29 76.1904<50 107.18>
VStem: 107.18 76.25<0 51.3005 419.05 580.95 657.14 914.29>
LayerCount: 2
Fore
SplineSet
50 914.290039062 m 1
 50 990.48046875 l 1
 107.1796875 990.48046875 l 1
 183.4296875 990.48046875 l 1
 240.620117188 990.48046875 l 1
 183.4296875 914.290039062 l 1
 183.4296875 657.139648438 l 1
 269.209960938 657.139648438 l 1
 269.209960938 580.950195312 l 1
 183.4296875 580.950195312 l 1
 183.4296875 419.049804688 l 1
 183.4296875 0 l 1
 107.1796875 0 l 1
 50 419.049804688 l 1
 107.1796875 419.049804688 l 1
 107.1796875 580.950195312 l 1
 107.1796875 657.139648438 l 1
 107.1796875 914.290039062 l 1
 50 914.290039062 l 1
EndSplineSet
Validated: 524289
EndChar

StartChar: C
Encoding: 67 67 14
Width: 328
Flags: W
HStem: 0 76.1904<126.26 202.51> 485.71 76.1904<126.26 278.75> 914.29 76.1904<126.26 154.85>
VStem: 50.0098 104.84<914.29 990.48> 50.0098 76.25<76.1904 485.71 561.9 914.29> 202.51 76.25<76.1904 180.95>
LayerCount: 2
Fore
SplineSet
202.509765625 180.950195312 m 1xec
 278.759765625 180.950195312 l 1
 278.759765625 0 l 1
 202.509765625 0 l 1
 126.259765625 0 l 1
 50.009765625 0 l 1
 50.009765625 76.1904296875 l 1xec
 50.009765625 914.290039062 l 1xf4
 50 990.48046875 l 1
 126.259765625 990.48046875 l 1xec
 154.849609375 990.48046875 l 1
 154.849609375 914.290039062 l 1xf4
 126.259765625 914.290039062 l 1
 126.259765625 561.900390625 l 1
 278.75 561.900390625 l 1
 278.75 485.709960938 l 1
 126.259765625 485.709960938 l 1
 126.259765625 76.1904296875 l 1
 202.509765625 76.1904296875 l 1
 202.509765625 180.950195312 l 1xec
EndSplineSet
Validated: 8912897
EndChar

StartChar: D
Encoding: 68 68 15
Width: 452
VWidth: 991
Flags: W
HStem: 0 76.1904<126.25 192.97 269.22 345.47> 914.29 76.1904<164.37 192.97 269.22 297.81>
VStem: 50 76.25<76.1904 990.48> 164.37 133.439<914.29 990.48>
LayerCount: 2
Fore
SplineSet
50 990.48046875 m 1
 126.25 990.48046875 l 1
 126.25 76.1904296875 l 1
 192.969726562 76.1904296875 l 1
 192.969726562 914.290039062 l 1
 164.370117188 914.290039062 l 1
 164.370117188 990.48046875 l 1
 192.969726562 990.48046875 l 1
 269.219726562 990.48046875 l 1
 297.809570312 990.48046875 l 1
 297.809570312 914.290039062 l 1
 269.219726562 914.290039062 l 1
 269.219726562 76.1904296875 l 1
 345.469726562 76.1904296875 l 1
 402.649414062 0 l 1
 269.219726562 0 l 1
 192.969726562 0 l 1
 126.25 0 l 1
 50 0 l 1
 50 76.1904296875 l 1
 50 990.48046875 l 1
EndSplineSet
Validated: 524289
EndChar

StartChar: E
Encoding: 69 69 16
Width: 338
VWidth: 991
Flags: W
VStem: 88.1299 76.25<723.819 914.29>
LayerCount: 2
Fore
SplineSet
50 914.290039062 m 1
 50 990.48046875 l 1
 288.290039062 914.290039062 l 1
 164.379882812 914.290039062 l 1
 164.379882812 723.809570312 l 1
 202.5 657.139648438 l 1
 126.25 0 l 1
 50 657.139648438 l 1
 88.1298828125 723.818597325 l 1
 88.1298828125 914.290039062 l 1
 50 914.290039062 l 1
EndSplineSet
Validated: 524289
EndChar

StartChar: F
Encoding: 70 70 17
Width: 338
VWidth: 991
Flags: W
HStem: 914.29 76.1904<50 88.1299 164.38 231.67>
VStem: 88.1299 76.25<704.76 914.29>
LayerCount: 2
Fore
SplineSet
126.25 0 m 1
 50 704.759765625 l 1
 88.1298828125 704.759765625 l 1
 88.1298828125 914.290039062 l 1
 50 914.290039062 l 1
 50 990.48046875 l 1
 288.290039062 990.48046875 l 1
 288.290039062 828.5703125 l 1
 231.669921875 914.290039062 l 1
 164.379882812 914.290039062 l 1
 164.379882812 704.759765625 l 1
 202.5 704.759765625 l 1
 126.25 0 l 1
EndSplineSet
Validated: 524289
EndChar

StartChar: G
Encoding: 71 71 18
Width: 710
VWidth: 991
Flags: W
HStem: 0 76.1904<383.59 583.75>
VStem: 421.72 76.25<590.48 990.48> 583.75 76.25<76.1904 238.1>
LayerCount: 2
Fore
SplineSet
421.719726562 361.900390625 m 1
 421.719726562 200 l 1
 259.690429688 200 l 1
 421.719726562 361.900390625 l 1
212.030273438 361.900390625 m 1
 212.030273438 200 l 1
 50 200 l 1
 212.030273438 361.900390625 l 1
421.719726562 990.48046875 m 1
 497.969726562 990.48046875 l 1
 497.969726562 590.48046875 l 1
 660 238.099609375 l 1
 660 76.1904296875 l 1
 660 0 l 1
 583.75 0 l 1
 383.58984375 0 l 1
 383.58984375 76.1904296875 l 1
 583.75 76.1904296875 l 1
 583.75 238.099609375 l 1
 421.719726562 590.48046875 l 1
 421.719726562 990.48046875 l 1
EndSplineSet
Validated: 524289
EndChar

StartChar: H
Encoding: 72 72 19
Width: 690
VWidth: 991
Flags: W
HStem: 533.33 76.1895<192.97 555.16> 580.95 76.1895<50 116.72>
VStem: 116.72 76.25<76.1904 533.33> 555.16 76.25<57.1396 533.33 609.52 685.71>
LayerCount: 2
Fore
SplineSet
69.0595703125 971.4296875 m 1x30
 231.099609375 809.51953125 l 1
 69.0595703125 809.51953125 l 1
 69.0595703125 971.4296875 l 1x30
278.75 971.4296875 m 1
 440.779296875 809.51953125 l 1
 278.75 809.51953125 l 1
 278.75 971.4296875 l 1
478.91015625 971.4296875 m 1
 640.939453125 809.51953125 l 1
 478.91015625 809.51953125 l 1
 478.91015625 971.4296875 l 1
631.41015625 57.1396484375 m 1
 555.16015625 0 l 1
 555.16015625 533.330078125 l 1
 192.969726562 533.330078125 l 1xb0
 192.969726562 76.1904296875 l 1
 192.969726562 0 l 1
 116.719726562 0 l 1
 59.529296875 0 l 1
 116.719726562 76.1904296875 l 1
 116.719726562 580.950195312 l 1
 50 580.950195312 l 1
 50 657.139648438 l 1
 116.719726562 657.139648438 l 1
 192.969726562 657.139648438 l 1x70
 192.969726562 609.51953125 l 1
 555.16015625 609.51953125 l 1xb0
 555.16015625 742.860351562 l 1
 631.41015625 685.709960938 l 1
 631.41015625 57.1396484375 l 1
EndSplineSet
Validated: 8912897
EndChar

StartChar: I
Encoding: 73 73 20
Width: 452
VWidth: 991
Flags: W
HStem: 180.95 76.1895<335.93 402.649>
VStem: 259.68 76.25<57.1396 161.9 257.14 990.48>
LayerCount: 2
Fore
SplineSet
402.649414062 257.139648438 m 1
 402.649414062 180.950195312 l 1
 335.9296875 180.950195312 l 1
 335.9296875 57.1396484375 l 1
 259.6796875 57.1396484375 l 1
 259.6796875 161.900390625 l 1
 259.6796875 161.900390625 212.030273438 142.860351562 164.370117188 104.759765625 c 0
 116.719726562 66.669921875 50 0 50 0 c 1
 50 104.759765625 l 1
 50 104.759765625 97.6494140625 152.379882812 145.309570312 190.48046875 c 0
 192.969726562 228.5703125 259.6796875 257.139648438 259.6796875 257.139648438 c 1
 259.6796875 990.48046875 l 1
 335.9296875 990.48046875 l 1
 335.9296875 257.139648438 l 1
 402.649414062 257.139648438 l 1
EndSplineSet
Validated: 524289
EndChar

StartChar: J
Encoding: 74 74 21
Width: 290
VWidth: 991
Flags: W
HStem: 914.19 76.1895<50 107.189 183.439 240.619>
VStem: 107.189 76.25<280.189 914.19>
LayerCount: 2
Fore
SplineSet
240.619140625 990.379882812 m 1
 240.619140625 914.190429688 l 1
 183.439453125 914.190429688 l 1
 183.439453125 38 l 1
 107.189453125 304.669921875 l 1
 107.189453125 914.190429688 l 1
 50 914.190429688 l 1
 50 990.379882812 l 1
 107.189453125 990.379882812 l 1
 183.439453125 990.379882812 l 1
 240.619140625 990.379882812 l 1
EndSplineSet
Validated: 524289
EndChar

StartChar: K
Encoding: 75 75 22
Width: 405
VWidth: 991
Flags: W
HStem: 214.38 76.3799<117.96 229.41> 400 76.1904<116.72 231.09> 914.29 76.1904<202.5 231.09 307.34 335.94>
VStem: 202.5 133.44<914.29 990.48> 231.09 123.91<300.464 399.285> 231.09 76.25<0 227.223 479.178 533.312 637.118 914.29>
LayerCount: 2
Fore
SplineSet
335.940429688 990.48046875 m 1xf0
 335.940429688 914.290039062 l 1xf0
 307.33984375 914.290039062 l 1
 307.33984375 519.374138498 l 1xe4
 339.854951595 462.134040879 355 419.774967345 355 388.669921875 c 0xe8
 355 328.539234063 336.798872324 289.380674392 307.33984375 263.753706041 c 1
 307.33984375 0 l 1
 231.08984375 0 l 1
 231.08984375 227.222542036 l 1xe4
 195.329627202 218.419573735 154.904834143 215.687159334 114.150390625 214.379882812 c 0
 99.3701171875 213.900390625 85.740234375 213.51953125 73.16015625 213.240234375 c 1
 117.959960938 290.759765625 l 1
 171.254173582 292.750985048 207.083240914 297.891988359 231.08984375 306.741382473 c 1xe8
 231.08984375 400 l 1
 88.1298828125 400 l 1
 116.719726562 476.190429688 l 1
 231.08984375 476.190429688 l 1
 231.08984375 499.030220782 l 1
 196.965350803 555.320431486 140.57429033 635.806145233 50 750.669921875 c 1
 50 868.860351562 l 1
 81.740234375 833.330078125 l 1
 142.149941702 757.82402884 191.640910555 692.896418708 231.08984375 637.118132287 c 1
 231.08984375 914.290039062 l 1xe4
 202.5 914.290039062 l 1
 202.5 990.48046875 l 1xf0
 231.08984375 990.48046875 l 1
 307.33984375 990.48046875 l 1xe4
 335.940429688 990.48046875 l 1xf0
EndSplineSet
Validated: 8912897
EndChar

StartChar: L
Encoding: 76 76 23
Width: 452
VWidth: 991
Flags: W
HStem: 733.33 76.1895<50 116.72>
VStem: 69.0596 123.91<216.938 266.67 455.028 504.76> 116.72 76.25<0 216.938 293.128 455.028 531.218 733.33 828.57 933.33>
LayerCount: 2
Fore
SplineSet
192.969726562 0 m 1xa0
 116.719726562 0 l 1
 116.719726562 216.938016526 l 1xa0
 69.0595703125 190.48046875 l 1
 69.0595703125 266.669921875 l 1xc0
 116.719726562 293.128012236 l 1
 116.719726562 455.028402861 l 1xa0
 69.0595703125 428.5703125 l 1
 69.0595703125 504.759765625 l 1xc0
 116.719726563 531.217855986 l 1
 116.719726562 733.330078125 l 1
 50 733.330078125 l 1
 50 809.51953125 l 1
 116.719726562 809.51953125 l 1
 116.719726562 933.330078125 l 1
 192.969726562 933.330078125 l 1
 192.969726562 828.5703125 l 1
 192.969726562 828.5703125 240.620117188 847.620117188 288.280273438 885.709960938 c 0
 335.9296875 923.809570312 402.649414062 990.48046875 402.649414062 990.48046875 c 1
 402.649414062 885.709960938 l 1
 402.649414062 885.709960938 355 838.099609375 307.33984375 800 c 0
 259.6796875 761.900390625 192.969726562 733.330078125 192.969726562 733.330078125 c 1
 192.969726562 0 l 1xa0
EndSplineSet
Validated: 8912897
EndChar

StartChar: M
Encoding: 77 77 24
Width: 424
VWidth: 991
Flags: W
HStem: 0 76.1904<297.811 374.061> 914.29 76.1904<297.811 374.061>
VStem: 221.561 152.5<0 76.1904 914.29 990.48> 221.561 76.25<76.1904 914.29>
LayerCount: 2
Fore
SplineSet
183.440429688 561.900390625 m 1xc0
 183.440429688 342.860351562 l 1
 50 400 l 1
 183.440429688 561.900390625 l 1xc0
374.060546875 76.1904296875 m 1xe0
 374.060546875 0 l 1xe0
 297.810546875 0 l 1xd0
 221.560546875 0 l 1
 221.560546875 76.1904296875 l 1
 221.560546875 914.290039062 l 1
 221.560546875 990.48046875 l 1xe0
 297.810546875 990.48046875 l 1xd0
 374.060546875 990.48046875 l 1
 374.060546875 914.290039062 l 1xe0
 297.810546875 914.290039062 l 1
 297.810546875 76.1904296875 l 1xd0
 374.060546875 76.1904296875 l 1xe0
EndSplineSet
Validated: 8912897
EndChar

StartChar: N
Encoding: 78 78 25
Width: 424
VWidth: 991
Flags: W
HStem: 914.29 76.1904<297.811 374.061>
VStem: 221.561 152.5<914.29 990.48> 221.561 76.25<76.1904 914.29>
LayerCount: 2
Fore
SplineSet
374.060546875 990.48046875 m 1xc0
 374.060546875 914.290039062 l 1xc0
 297.810546875 914.290039062 l 1
 297.810546875 76.1904296875 l 1
 221.560546875 0 l 1xa0
 221.560546875 914.290039062 l 1
 221.560546875 990.48046875 l 1xc0
 297.810546875 990.48046875 l 1xa0
 374.060546875 990.48046875 l 1xc0
183.440429688 561.900390625 m 1
 183.440429688 342.860351562 l 1
 50 400 l 1
 183.440429688 561.900390625 l 1
EndSplineSet
Validated: 8912897
EndChar

StartChar: O
Encoding: 79 79 26
Width: 385
VWidth: 991
Flags: W
HStem: 0 76.1904<278.75 335.939> 390.48 76.1895<126.25 202.5> 914.29 76.1904<278.75 335.939>
VStem: 50 76.25<304.76 390.48 466.67 933.33> 202.5 133.439<0 76.1904 914.29 990.48> 202.5 76.25<76.1904 390.48 466.67 914.29>
LayerCount: 2
Fore
SplineSet
335.939453125 76.1904296875 m 1xf8
 335.939453125 0 l 1xf8
 278.75 0 l 1xf4
 202.5 0 l 1
 202.5 76.1904296875 l 1xf8
 202.5 390.48046875 l 1
 126.25 390.48046875 l 1
 126.25 247.620117188 l 1
 50 304.759765625 l 1
 50 390.48046875 l 1
 50 466.669921875 l 1
 50 933.330078125 l 1
 126.25 990.48046875 l 1
 126.25 466.669921875 l 1
 202.5 466.669921875 l 1xf4
 202.5 914.290039062 l 1
 202.5 990.48046875 l 1xf8
 278.75 990.48046875 l 1xf4
 335.939453125 990.48046875 l 1
 335.939453125 914.290039062 l 1xf8
 278.75 914.290039062 l 1
 278.75 466.669921875 l 1
 278.75 390.48046875 l 1
 278.75 76.1904296875 l 1xf4
 335.939453125 76.1904296875 l 1xf8
EndSplineSet
Validated: 8912897
EndChar

StartChar: P
Encoding: 80 80 27
Width: 385
VWidth: 991
Flags: W
HStem: 0 76.1904<278.75 335.939>
VStem: 50 104.85<238.1 278.793> 107.189 47.6602<114.29 238.1> 202.5 133.439<0 76.1904> 202.5 76.25<76.1904 933.33>
LayerCount: 2
Fore
SplineSet
107.189453125 238.099609375 m 1xa0
 50 238.099609375 l 1xc0
 154.849609375 847.620117188 l 1xa0
 154.849609375 266.669921875 l 1
 154.849609375 238.099609375 l 1xc0
 154.849609375 114.290039062 l 1
 107.189453125 114.290039062 l 1
 107.189453125 238.099609375 l 1xa0
335.939453125 76.1904296875 m 1x90
 335.939453125 0 l 1x90
 278.75 0 l 1x88
 202.5 0 l 1
 202.5 76.1904296875 l 1x90
 202.5 990.48046875 l 1
 278.75 933.330078125 l 1
 278.75 76.1904296875 l 1x88
 335.939453125 76.1904296875 l 1x90
EndSplineSet
Validated: 8912897
EndChar

StartChar: Q
Encoding: 81 81 28
Width: 424
VWidth: 991
Flags: W
HStem: 914.29 76.1904<192.971 240.62 316.87 364.53>
VStem: 240.62 76.25<0 51.2909 419.05 571.43 647.62 914.29>
LayerCount: 2
Fore
SplineSet
364.530273438 990.48046875 m 1
 364.530273438 914.290039062 l 1
 316.870117188 914.290039062 l 1
 316.870117188 419.049804688 l 1
 374.060546875 419.049804688 l 1
 316.870117188 0 l 1
 240.620117188 0 l 1
 240.620117188 419.049804688 l 1
 240.620117188 571.4296875 l 1
 50 742.860351562 l 1
 50 819.049804688 l 1
 240.620117188 647.620117188 l 1
 240.620117188 914.290039062 l 1
 192.970703125 914.290039062 l 1
 192.970703125 990.48046875 l 1
 240.620117188 990.48046875 l 1
 316.870117188 990.48046875 l 1
 364.530273438 990.48046875 l 1
EndSplineSet
Validated: 524289
EndChar

StartChar: R
Encoding: 82 82 29
Width: 372
VWidth: 991
Flags: W
HStem: 114.48 85.71<216.927 322.203> 552.38 76.1904<179.232 236.423> 914.29 76.1904<74.3828 102.982 179.232 207.822>
VStem: 49.9999 129.233<239.902 394.83> 74.3828 133.439<914.29 990.48> 102.982 133.44<552.433 628.57> 102.982 76.25<0 144.558 499.408 552.38 628.57 914.29>
LayerCount: 2
Fore
SplineSet
236.422851562 628.5703125 m 1xe4
 236.422851562 552.379882812 l 1xe4
 179.232421875 552.379882812 l 1
 179.232421875 521.049804688 l 1
 179.232421875 471.633022724 l 1
 322.203125 409.51953125 l 1
 322.203125 333.330078125 l 1
 179.232421875 395.443569599 l 1
 179.232421875 242.029083263 l 1
 209.893140277 219.054903071 257.767487166 205.057635109 322.203125 200.190429688 c 1
 322.203125 114.48046875 l 1
 319.243164062 114.48046875 l 2
 264.362933928 118.323703992 217.61440153 128.380265996 179.232421875 144.557908994 c 1
 179.232421875 0 l 1
 102.982421875 0 l 1
 102.982421875 195.421217417 l 1xe2
 95.533561756 203.228397111 88.8582562802 211.582316873 82.962890625 220.48046875 c 0
 58.8830100566 256.732982268 49.999852341 297.429999822 49.999852341 339.084768263 c 0xf0
 49.999852341 408.711885148 74.8194506452 481.014964012 94.97265625 539.709960938 c 0
 97.7779232687 547.826064563 100.485191692 555.723555938 102.982421875 563.226026792 c 2
 102.982421875 628.5703125 l 1xe4
 102.982421875 914.290039062 l 1xe2
 74.3828125 914.290039062 l 1
 74.3828125 990.48046875 l 1xe8
 102.982421875 990.48046875 l 1
 179.232421875 990.48046875 l 1xe2
 207.822265625 990.48046875 l 1
 207.822265625 914.290039062 l 1xe8
 179.232421875 914.290039062 l 1
 179.232421875 628.5703125 l 1xe2
 236.422851562 628.5703125 l 1xe4
EndSplineSet
Validated: 8912897
EndChar

StartChar: S
Encoding: 83 83 30
Width: 452
VWidth: 991
Flags: W
HStem: 733.33 76.1895<50 116.72>
VStem: 116.72 76.25<0 733.33 828.57 933.33>
LayerCount: 2
Fore
SplineSet
192.969726562 0 m 1
 116.719726562 0 l 1
 116.719726562 733.330078125 l 1
 50 733.330078125 l 1
 50 809.51953125 l 1
 116.719726562 809.51953125 l 1
 116.719726562 933.330078125 l 1
 192.969726562 933.330078125 l 1
 192.969726562 828.5703125 l 1
 192.969726562 828.5703125 240.620117188 847.620117188 288.280273438 885.709960938 c 0
 335.9296875 923.809570312 402.649414062 990.48046875 402.649414062 990.48046875 c 1
 402.649414062 885.709960938 l 1
 402.649414062 885.709960938 355 838.099609375 307.33984375 800 c 0
 259.6796875 761.900390625 192.969726562 733.330078125 192.969726562 733.330078125 c 1
 192.969726562 0 l 1
EndSplineSet
Validated: 524289
EndChar

StartChar: T
Encoding: 84 84 31
Width: 376
VWidth: 991
Flags: W
HStem: -0.419922 76.1895<126.26 326.4>
VStem: 50 76.2598<75.7695 237.67> 212.09 76.2002<590.13 990.13>
LayerCount: 2
Fore
SplineSet
326.400390625 75.76953125 m 1
 326.400390625 -0.419921875 l 1
 50 -0.419921875 l 1
 50 75.76953125 l 1
 50.009765625 237.740234375 l 1
 50.0928775655 237.740234375 l 1
 212.08984375 590.049804688 l 1
 212.040039062 990.129882812 l 1
 288.290039062 990.129882812 l 1
 288.290039062 590.129882812 l 1
 126.310546875 237.669921875 l 1
 126.259765625 237.669921875 l 1
 126.259765625 75.76953125 l 1
 326.400390625 75.76953125 l 1
EndSplineSet
Validated: 524289
EndChar

StartChar: U
Encoding: 85 85 32
Width: 357
VWidth: 991
Flags: W
HStem: 0 76.1904<50 78.6006 154.851 231.101> 485.71 76.1904<154.851 307.351> 914.29 76.1904<50 78.6006>
VStem: 50 104.851<914.29 990.48> 78.6006 76.25<76.1904 485.71 561.9 914.29> 231.101 76.25<76.1904 180.95>
LayerCount: 2
Fore
SplineSet
307.350585938 561.900390625 m 1xec
 307.350585938 485.709960938 l 1
 154.850585938 485.709960938 l 1
 154.850585938 76.1904296875 l 1
 231.100585938 76.1904296875 l 1
 231.100585938 180.950195312 l 1
 307.350585938 180.950195312 l 1
 307.350585938 76.1904296875 l 1
 307.350585938 0 l 1
 231.100585938 0 l 1
 154.850585938 0 l 1
 78.6005859375 0 l 1xec
 50 0 l 1
 50 76.1904296875 l 1xf4
 78.6005859375 76.1904296875 l 1xec
 78.6005859375 914.290039062 l 1
 50 914.290039062 l 1
 50 990.48046875 l 1xf4
 78.6005859375 990.48046875 l 1xec
 154.850585938 990.48046875 l 1
 154.850585938 914.290039062 l 1xf4
 154.850585938 561.900390625 l 1
 307.350585938 561.900390625 l 1xec
EndSplineSet
Validated: 8912897
EndChar

StartChar: V
Encoding: 86 86 33
Width: 452
VWidth: 991
Flags: W
HStem: 180.95 76.1895<335.93 402.649> 780 20G<347.563 383.59>
VStem: 259.68 123.91<485.71 535.448 723.81 773.542> 259.68 76.25<57.1396 161.9 257.14 459.257 535.448 697.352 773.542 990.48>
LayerCount: 2
Fore
SplineSet
259.6796875 990.48046875 m 1xd0
 335.9296875 990.48046875 l 1
 335.9296875 773.541909639 l 1xd0
 383.58984375 800 l 1
 383.58984375 723.809570312 l 1xe0
 335.9296875 697.352022537 l 1
 335.9296875 535.447726118 l 1xd0
 383.58984375 561.900390625 l 1
 383.58984375 485.709960938 l 1xe0
 335.9296875 459.25729643 l 1
 335.9296875 257.139648438 l 1
 402.649414062 257.139648438 l 1
 402.649414062 180.950195312 l 1
 335.9296875 180.950195312 l 1
 335.9296875 57.1396484375 l 1
 259.6796875 57.1396484375 l 1
 259.6796875 161.900390625 l 1
 259.6796875 161.900390625 212.030273438 142.860351562 164.370117188 104.759765625 c 0
 116.719726562 66.669921875 50 0 50 0 c 1
 50 104.759765625 l 1
 50 104.759765625 97.6494140625 152.379882812 145.309570312 190.48046875 c 0
 192.969726562 228.5703125 259.6796875 257.139648438 259.6796875 257.139648438 c 1
 259.6796875 990.48046875 l 1xd0
EndSplineSet
Validated: 8912897
EndChar

StartChar: W
Encoding: 87 87 34
Width: 376
VWidth: 991
Flags: W
HStem: -0.419922 76.1895<50 250.141>
VStem: 88.1104 76.2002<590.13 990.13> 250.141 76.2598<75.7695 237.67>
LayerCount: 2
Fore
SplineSet
50 75.76953125 m 1
 250.140625 75.76953125 l 1
 250.140625 237.669921875 l 1
 250.08984375 237.669921875 l 1
 88.1103515625 590.129882812 l 1
 88.1103515625 990.129882812 l 1
 164.360351562 990.129882812 l 1
 164.310546875 590.049804688 l 1
 326.307617188 237.740234375 l 1
 326.390625 237.740234375 l 1
 326.400390625 75.76953125 l 1
 326.400390625 -0.419921875 l 1
 50 -0.419921875 l 1
 50 75.76953125 l 1
EndSplineSet
Validated: 524289
EndChar

StartChar: X
Encoding: 88 88 35
Width: 424
VWidth: 991
Flags: W
HStem: 0 76.1904<126.25 192.971 269.221 316.87> 914.29 76.1904<145.311 192.971 269.221 316.87>
VStem: 50 76.25<76.1904 180.95> 192.971 76.25<76.1904 914.29>
LayerCount: 2
Fore
SplineSet
50 180.950195312 m 1
 126.25 180.950195312 l 1
 126.25 76.1904296875 l 1
 192.970703125 76.1904296875 l 1
 192.970703125 914.290039062 l 1
 145.310546875 914.290039062 l 1
 145.310546875 990.48046875 l 1
 192.970703125 990.48046875 l 1
 269.220703125 990.48046875 l 1
 316.870117188 990.48046875 l 1
 316.870117188 914.290039062 l 1
 269.220703125 914.290039062 l 1
 269.220703125 76.1904296875 l 1
 316.870117188 76.1904296875 l 1
 374.060546875 0 l 1
 269.220703125 0 l 1
 192.970703125 0 l 1
 126.25 0 l 1
 50 0 l 1
 50 76.1904296875 l 1
 50 180.950195312 l 1
EndSplineSet
Validated: 524289
EndChar

StartChar: Y
Encoding: 89 89 36
Width: 395
VWidth: 991
Flags: W
HStem: 495.24 76.1895<173.91 345.47> 914.29 76.1904<50 97.6602 173.91 221.56>
VStem: 97.6602 76.25<57.1396 495.24 571.43 914.29>
LayerCount: 2
Fore
SplineSet
221.559570312 990.48046875 m 1
 221.559570312 914.290039062 l 1
 173.91015625 914.290039062 l 1
 173.91015625 571.4296875 l 1
 345.469726562 571.4296875 l 1
 345.469726562 495.240234375 l 1
 173.91015625 495.240234375 l 1
 173.91015625 0 l 1
 97.66015625 57.1396484375 l 1
 97.66015625 495.240234375 l 1
 97.66015625 571.4296875 l 1
 97.66015625 914.290039062 l 1
 50 914.290039062 l 1
 50 990.48046875 l 1
 97.66015625 990.48046875 l 1
 173.91015625 990.48046875 l 1
 221.559570312 990.48046875 l 1
EndSplineSet
Validated: 524289
EndChar

StartChar: Z
Encoding: 90 90 37
Width: 462
VWidth: 991
Flags: W
HStem: 161.9 76.1992<126.25 202.5 278.75 355> 914.29 76.1904<145.31 202.5>
VStem: 50 76.25<104.76 161.9 238.1 276.19> 145.31 133.44<914.29 990.48> 202.5 76.25<57.1396 161.9 238.1 914.29>
LayerCount: 2
Fore
SplineSet
50 276.190429688 m 1xe8
 126.25 276.190429688 l 1
 126.25 238.099609375 l 1
 202.5 238.099609375 l 1
 202.5 914.290039062 l 1xe8
 145.309570312 914.290039062 l 1
 145.309570312 990.48046875 l 1xf0
 202.5 990.48046875 l 1xe8
 278.75 990.48046875 l 1
 278.75 914.290039062 l 1xf0
 278.75 238.099609375 l 1
 355 238.099609375 l 1
 412.1796875 352.379882812 l 1
 412.1796875 47.6201171875 l 1
 355 161.900390625 l 1
 278.75 161.900390625 l 1
 278.75 0 l 1
 202.5 57.1396484375 l 1
 202.5 161.900390625 l 1
 126.25 161.900390625 l 1
 126.25 104.759765625 l 1
 50 104.759765625 l 1
 50 276.190429688 l 1xe8
EndSplineSet
Validated: 8912897
EndChar

StartChar: quotesingle
Encoding: 39 39 64
Width: 214
VWidth: 991
Flags: W
HStem: 795.424 229.053
VStem: 50 114.48
LayerCount: 2
Fore
SplineSet
164.48046875 795.423828125 m 1
 50 909.904296875 l 1
 164.573242188 1024.4765625 l 1
 164.48046875 795.423828125 l 1
EndSplineSet
Validated: 524289
EndChar

StartChar: hyphen
Encoding: 45 45 66
Width: 538
Flags: W
HStem: 533.33 76.1895<50 488.439>
LayerCount: 2
Fore
SplineSet
488.439453125 609.51953125 m 5
 488.439453125 533.330078125 l 5
 50 533.330078125 l 5
 50 609.51953125 l 5
 488.439453125 609.51953125 l 5
EndSplineSet
Validated: 524289
EndChar

StartChar: exclam
Encoding: 33 33 68
Width: 176
Flags: W
VStem: 50 76.25<765.716 819.049> 50 47.6602<819.049 923.81>
LayerCount: 2
Fore
SplineSet
97.66015625 819.048828125 m 1x40
 126.25 819.048828125 l 1x80
 50 238.099609375 l 1x40
 50 771.428710938 l 1
 50 819.048828125 l 1x80
 50 923.809570312 l 1
 97.66015625 923.809570312 l 1
 97.66015625 819.048828125 l 1x40
EndSplineSet
Validated: 8912897
EndChar

StartChar: comma
Encoding: 44 44 69
Width: 262
Flags: W
HStem: 0 161.9
VStem: 50 162.03
LayerCount: 2
Fore
SplineSet
212.030273438 161.900390625 m 1
 212.030273438 0 l 1
 50 0 l 1
 212.030273438 161.900390625 l 1
EndSplineSet
Validated: 524289
EndChar

StartChar: quotedbl
Encoding: 34 34 70
Width: 369
VWidth: 991
Flags: W
HStem: 795.424 229.053
VStem: 50 269.171
LayerCount: 2
Fore
SplineSet
319.170898438 795.423828125 m 1
 204.690429688 909.904296875 l 1
 319.262695312 1024.4765625 l 1
 319.170898438 795.423828125 l 1
164.48046875 795.423828125 m 1
 50 909.904296875 l 1
 164.573242188 1024.4765625 l 1
 164.48046875 795.423828125 l 1
EndSplineSet
Validated: 524289
EndChar

StartChar: dollar
Encoding: 36 36 71
Width: 476
VWidth: 991
Flags: W
HStem: -0.419922 76.1895<80 350.141>
VStem: 50 76.25<412.86 466.193> 78.5898 47.6602<308.1 412.86> 188.11 76.2002<590.13 990.13> 350.141 76.2598<75.7695 237.67>
LayerCount: 2
Fore
SplineSet
78.58984375 412.860351562 m 1xb8
 50 412.860351562 l 1xd8
 126.25 993.809570312 l 1xb8
 126.25 460.48046875 l 1
 126.25 412.860351562 l 1xd8
 126.25 308.099609375 l 1
 78.58984375 308.099609375 l 1
 78.58984375 412.860351562 l 1xb8
80 75.76953125 m 5
 350.140625 75.76953125 l 5
 350.140625 237.669921875 l 5
 350.08984375 237.669921875 l 5
 188.110351562 590.129882812 l 5
 188.110351562 990.129882812 l 5
 264.360351562 990.129882812 l 5
 264.310546875 590.049804688 l 5
 426.307617188 237.740234375 l 5
 426.390625 237.740234375 l 5
 426.400390625 75.76953125 l 5
 426.400390625 -0.419921875 l 5
 80 -0.419921875 l 5
 80 75.76953125 l 5
EndSplineSet
Validated: 8912897
EndChar

StartChar: ampersand
Encoding: 38 38 72
Width: 424
Flags: W
HStem: 824.29 76.1904<297.811 374.061> 914.29 76.1904<50 107.18>
VStem: 107.18 76.25<0 51.3005 419.05 914.29> 221.561 152.5<824.29 900.48> 221.561 76.25<76.1904 824.29>
LayerCount: 2
Fore
SplineSet
50 914.290039062 m 1xe0
 50 990.48046875 l 1
 107.1796875 990.48046875 l 1
 183.4296875 990.48046875 l 1
 240.620117188 990.48046875 l 1
 183.4296875 914.290039062 l 1
 183.4296875 0 l 1
 107.1796875 0 l 1
 50 419.049804688 l 1
 107.1796875 419.049804688 l 1
 107.1796875 580.950195312 l 1
 107.1796875 657.139648438 l 1
 107.1796875 914.290039062 l 1
 50 914.290039062 l 1xe0
374.060546875 900.48046875 m 1xf0
 374.060546875 824.290039062 l 1xf0
 297.810546875 824.290039062 l 1
 297.810546875 76.1904296875 l 1
 221.560546875 0 l 1xe8
 221.560546875 824.290039062 l 1
 221.560546875 900.48046875 l 1xf0
 297.810546875 900.48046875 l 1xe8
 374.060546875 900.48046875 l 1xf0
EndSplineSet
Validated: 8912897
EndChar

StartChar: colon
Encoding: 58 58 73
Width: 263
Flags: W
VStem: 54.5742 161.91
LayerCount: 2
Fore
SplineSet
54.57421875 412.385742188 m 1
 216.484375 574.415039062 l 1
 216.484375 412.385742188 l 1
 54.57421875 412.385742188 l 1
54.57421875 212.225585938 m 1
 216.484375 374.254882812 l 1
 216.484375 212.225585938 l 1
 54.57421875 212.225585938 l 1
EndSplineSet
Validated: 524289
EndChar

StartChar: semicolon
Encoding: 59 59 74
Width: 263
Flags: W
VStem: 54.5742 161.91
LayerCount: 2
Fore
SplineSet
54.57421875 412.385742188 m 1
 216.484375 574.415039062 l 1
 216.484375 412.385742188 l 1
 54.57421875 412.385742188 l 1
54.57421875 212.225585938 m 1
 216.484375 374.254882812 l 1
 216.484375 212.225585938 l 1
 54.57421875 212.225585938 l 1
54.57421875 2.53515625 m 1
 216.484375 164.575195312 l 1
 216.484375 2.53515625 l 1
 54.57421875 2.53515625 l 1
EndSplineSet
Validated: 524289
EndChar

StartChar: at
Encoding: 64 64 75
Width: 376
VWidth: 991
Flags: W
HStem: -0.419922 76.1895<126.26 326.4>
VStem: 50 76.2598<75.7695 237.67> 90 76.25<490.358 535.298> 212.09 76.2002<590.13 990.13>
LayerCount: 2
Fore
SplineSet
118.58984375 489.860351562 m 1xd0
 90 489.860351562 l 1
 166.25 984.809570312 l 1
 166.25 537.48046875 l 1
 166.25 490.357781717 l 1xb0
 212.08984375 590.049804688 l 1
 212.040039062 990.129882812 l 1
 288.290039062 990.129882812 l 1
 288.290039062 590.129882812 l 1
 126.310546875 237.669921875 l 1
 126.259765625 237.669921875 l 1
 126.259765625 75.76953125 l 1
 326.400390625 75.76953125 l 1
 326.400390625 -0.419921875 l 1
 50 -0.419921875 l 1
 50 75.76953125 l 1
 50.009765625 237.740234375 l 1
 50.0927734375 237.740234375 l 1
 118.58984375 386.706961754 l 1
 118.58984375 489.860351562 l 1xd0
EndSplineSet
Validated: 8912897
EndChar

StartChar: numbersign
Encoding: 35 35 76
Width: 589
VWidth: 991
Flags: W
HStem: 180.95 76.1895<472.93 539.649> 733.341 76.1895<50 116.72>
VStem: 116.72 76.25<0 27.1096 110.635 733.341 828.58 933.341> 396.68 76.25<57.1396 161.9 257.14 879.846 963.371 990.48>
LayerCount: 2
Fore
SplineSet
396.6796875 879.845703125 m 1
 382.447265625 865.958984375 344.896484375 830.024414062 307.33984375 800 c 0
 259.6796875 761.91015625 192.969726562 733.340820312 192.969726562 733.340820312 c 1
 192.969726562 110.634765625 l 1
 207.202148438 124.521484375 244.752929688 160.456054688 282.309570312 190.48046875 c 0
 329.969726562 228.5703125 396.6796875 257.139648438 396.6796875 257.139648438 c 1
 396.6796875 879.845703125 l 1
50 733.340820312 m 1
 50 809.530273438 l 1
 116.719726562 809.530273438 l 1
 116.719726562 933.340820312 l 1
 192.969726562 933.340820312 l 1
 192.969726562 828.580078125 l 1
 192.969726562 828.580078125 240.619140625 847.620117188 288.279296875 885.720703125 c 0
 327.364257812 916.963867188 379.278320312 967.434570312 396.6796875 984.5703125 c 1
 396.6796875 990.48046875 l 1
 472.9296875 990.48046875 l 1
 472.9296875 257.139648438 l 1
 539.649414062 257.139648438 l 1
 539.649414062 180.950195312 l 1
 472.9296875 180.950195312 l 1
 472.9296875 57.1396484375 l 1
 396.6796875 57.1396484375 l 1
 396.6796875 161.900390625 l 1
 396.6796875 161.900390625 349.030273438 142.860351562 301.370117188 104.759765625 c 0
 262.28515625 73.5166015625 210.37109375 23.0458984375 192.969726562 5.91015625 c 1
 192.969726562 0 l 1
 116.719726562 0 l 1
 116.719726562 733.340820312 l 1
 50 733.340820312 l 1
EndSplineSet
Validated: 524289
EndChar

